<svg width="22" height="22" viewBox="0 0 22 22" fill="none" xmlns="http://www.w3.org/2000/svg">
<g id="Icons">
<path id="Vector" d="M18.2569 3.63137H16.0798V2.9615C16.0798 2.78384 16.0034 2.61345 15.8673 2.48783C15.7312 2.3622 15.5466 2.29163 15.3541 2.29163C15.1617 2.29163 14.9771 2.3622 14.841 2.48783C14.7049 2.61345 14.6284 2.78384 14.6284 2.9615V3.63137H7.37149V2.9615C7.37149 2.78384 7.29503 2.61345 7.15894 2.48783C7.02284 2.3622 6.83826 2.29163 6.64579 2.29163C6.45333 2.29163 6.26874 2.3622 6.13265 2.48783C5.99656 2.61345 5.9201 2.78384 5.9201 2.9615V3.63137H3.74301C3.35808 3.63137 2.98892 3.77252 2.71673 4.02377C2.44454 4.27502 2.29163 4.61579 2.29163 4.97111V18.3686C2.29163 18.7239 2.44454 19.0646 2.71673 19.3159C2.98892 19.5671 3.35808 19.7083 3.74301 19.7083H18.2569C18.6418 19.7083 19.011 19.5671 19.2832 19.3159C19.5554 19.0646 19.7083 18.7239 19.7083 18.3686V4.97111C19.7083 4.61579 19.5554 4.27502 19.2832 4.02377C19.011 3.77252 18.6418 3.63137 18.2569 3.63137ZM5.9201 4.97111V5.64099C5.9201 5.81865 5.99656 5.98903 6.13265 6.11466C6.26874 6.24028 6.45333 6.31086 6.64579 6.31086C6.83826 6.31086 7.02284 6.24028 7.15894 6.11466C7.29503 5.98903 7.37149 5.81865 7.37149 5.64099V4.97111H14.6284V5.64099C14.6284 5.81865 14.7049 5.98903 14.841 6.11466C14.9771 6.24028 15.1617 6.31086 15.3541 6.31086C15.5466 6.31086 15.7312 6.24028 15.8673 6.11466C16.0034 5.98903 16.0798 5.81865 16.0798 5.64099V4.97111H18.2569V7.6506H3.74301V4.97111H5.9201ZM18.2569 18.3686H3.74301V8.99034H18.2569V18.3686Z" fill="#BCBCBC"/>
</g>
</svg>
