<svg width="24" height="24" viewBox="0 0 24 24" fill="none" xmlns="http://www.w3.org/2000/svg">
<g id="State=Camera">
<path id="Icon" fill-rule="evenodd" clip-rule="evenodd" d="M9.15813 3.5H14.8426C15.2324 3.5 15.7439 3.74862 15.9838 4.05517L17.5459 6.31225C17.6985 6.5319 17.9522 6.6653 18.2231 6.6653H21.5823C22.3661 6.6653 23 7.29189 23 8.06873V19.0959C23 19.8714 22.3661 20.5 21.5823 20.5H2.41836C1.63458 20.5 1 19.8727 1 19.0959V8.06873C1 7.29324 1.63458 6.6653 2.41836 6.6653H5.79134C6.05328 6.6653 6.29873 6.53729 6.44723 6.32438L8.01616 4.05517C8.25679 3.74929 8.77037 3.5 9.15813 3.5ZM17.3232 8.42239C17.3232 8.81047 17.6408 9.12511 18.0327 9.12511C18.4253 9.12511 18.7422 8.81047 18.7422 8.42239C18.7422 8.0343 18.4253 7.71899 18.0327 7.71899C17.6408 7.71899 17.3232 8.0343 17.3232 8.42239ZM6.77344 13.2484C6.77344 16.1079 9.11346 18.4259 12.0003 18.4259C14.8872 18.4259 17.2265 16.1079 17.2265 13.2484C17.2265 10.3881 14.8872 8.07085 12.0003 8.07085C9.11346 8.07085 6.77344 10.3881 6.77344 13.2484ZM3.12853 4.20326H4.54895C4.94084 4.20326 5.25778 4.51588 5.25778 4.90666V5.60939H2.41901V4.90666C2.41901 4.5179 2.73458 4.20326 3.12853 4.20326ZM7.72473 13.2498C7.72473 10.9095 9.63845 9.01414 12.0003 9.01414C14.3621 9.01414 16.2758 10.9095 16.2758 13.2498C16.2758 15.5895 14.3621 17.4855 12.0003 17.4855C9.63845 17.4855 7.72473 15.5895 7.72473 13.2498Z" fill="#BCBCBC"/>
</g>
</svg>
