<svg width="22" height="22" viewBox="0 0 22 22" fill="none" xmlns="http://www.w3.org/2000/svg">
<g id="Icons">
<path id="Vector" d="M20.0453 10.4559C18.052 6.24444 15.0391 4.125 11 4.125C6.9589 4.125 3.94802 6.24444 1.95479 10.458C1.87484 10.6278 1.83337 10.8133 1.83337 11.0011C1.83337 11.1888 1.87484 11.3743 1.95479 11.5441C3.94802 15.7556 6.961 17.875 11 17.875C15.0412 17.875 18.052 15.7556 20.0453 11.542C20.2072 11.2003 20.2072 10.8039 20.0453 10.4559ZM11 16.3566C7.60859 16.3566 5.12546 14.6315 3.37402 11C5.12546 7.36848 7.60859 5.6434 11 5.6434C14.3915 5.6434 16.8746 7.36848 18.626 11C16.8767 14.6315 14.3936 16.3566 11 16.3566ZM10.9159 7.28834C8.87224 7.28834 7.21541 8.95015 7.21541 11C7.21541 13.0498 8.87224 14.7117 10.9159 14.7117C12.9596 14.7117 14.6165 13.0498 14.6165 11C14.6165 8.95015 12.9596 7.28834 10.9159 7.28834ZM10.9159 13.362C9.61444 13.362 8.56106 12.3054 8.56106 11C8.56106 9.69459 9.61444 8.63804 10.9159 8.63804C12.2174 8.63804 13.2708 9.69459 13.2708 11C13.2708 12.3054 12.2174 13.362 10.9159 13.362Z" fill="#BCBCBC"/>
</g>
</svg>
