<svg width="24" height="24" viewBox="0 0 24 24" fill="none" xmlns="http://www.w3.org/2000/svg">
<g id="State=Home">
<path id="Icon" fill-rule="evenodd" clip-rule="evenodd" d="M17.6921 6.93583V6.80046C17.6921 6.16473 18.2331 5.64936 18.9109 5.64936C19.584 5.64936 20.1297 6.15825 20.1297 6.80046V8.97377L22.06 10.5875C22.7868 11.1952 22.5929 11.6878 21.6285 11.6878H20.1297V20.6735C20.1297 21.13 19.728 21.5 19.256 21.5H4.75264C4.2701 21.5 3.87892 21.1312 3.87892 20.6735V11.6878H2.37236C1.40726 11.6878 1.21254 11.1965 1.94093 10.5875L11.3397 2.72983C11.7046 2.42473 12.2931 2.42205 12.6612 2.72983L17.6921 6.93583ZM14.442 13.5746V19.1224H17.6921V13.5746H14.442Z" fill="#BCBCBC"/>
</g>
</svg>
