<svg width="22" height="22" viewBox="0 0 22 22" fill="none" xmlns="http://www.w3.org/2000/svg">
<g id="Icons">
<path id="Vector" d="M19.4616 3.66663H2.5385C2.35149 3.66663 2.17214 3.73906 2.0399 3.86799C1.90766 3.99692 1.83337 4.17179 1.83337 4.35413V16.0416C1.83337 16.4063 1.98195 16.756 2.24643 17.0139C2.5109 17.2718 2.86961 17.4166 3.24363 17.4166H18.7564C19.1305 17.4166 19.4892 17.2718 19.7537 17.0139C20.0181 16.756 20.1667 16.4063 20.1667 16.0416V4.35413C20.1667 4.17179 20.0924 3.99692 19.9602 3.86799C19.8279 3.73906 19.6486 3.66663 19.4616 3.66663ZM11 10.9842L4.35156 5.04163H17.6485L11 10.9842ZM8.41839 10.5416L3.24363 15.1659V5.91733L8.41839 10.5416ZM9.46198 11.474L10.5197 12.4237C10.6498 12.5401 10.8199 12.6047 10.9965 12.6047C11.1731 12.6047 11.3433 12.5401 11.4734 12.4237L12.531 11.474L17.6432 16.0416H4.35156L9.46198 11.474ZM13.5817 10.5416L18.7564 5.91647V15.1668L13.5817 10.5416Z" fill="#BCBCBC"/>
</g>
</svg>
