<svg width="60" height="62" viewBox="0 0 60 62" fill="none" xmlns="http://www.w3.org/2000/svg">
<path fill-rule="evenodd" clip-rule="evenodd" d="M48.3418 37.0459C48.3418 42.2031 43.9929 46.3838 38.6283 46.3838C33.2638 46.3838 28.9149 42.2031 28.9149 37.0459C28.9149 31.8888 33.2638 27.708 38.6283 27.708C43.9929 27.708 48.3418 31.8888 48.3418 37.0459ZM5.92631 22.8782C6.61761 22.6232 6.98396 22.3876 7.54522 21.9122C7.54522 21.9122 8.51656 21.2682 9.16413 19.6582C9.431 18.9947 9.6319 18.4392 9.82574 17.9032C10.1022 17.1387 10.3643 16.4139 10.783 15.4722C11.4691 13.9292 12.7257 11.6083 12.7257 11.6083C12.7257 11.6083 14.0816 9.25723 15.316 8.0663C16.6249 6.8035 17.564 6.28876 19.2013 5.49032C20.5302 4.84233 22.7629 4.20233 22.7629 4.20233C22.7629 4.20233 24.5201 3.7014 25.677 3.55834C27.0206 3.39218 27.8543 3.44683 29.0942 3.5281C29.2438 3.53791 29.3993 3.5481 29.5623 3.55834C30.7051 3.63011 31.3474 3.69059 32.4764 3.88034C34.0185 4.13952 34.8893 4.32177 36.3617 4.84633C37.2683 5.1693 38.6282 5.81232 38.6282 5.81232C38.6282 5.81232 40.8636 6.88238 42.1898 7.7443C44.5895 9.30386 47.2803 11.9674 47.6941 12.5743C47.7878 12.7116 47.8752 12.8342 47.9576 12.9496C48.239 13.3441 48.4607 13.6548 48.6654 14.1842C48.8526 14.6682 48.9892 15.4722 48.9892 15.4722C48.9892 15.4722 49.155 16.4755 48.9892 17.0822C48.5845 18.5634 47.5169 19.3362 46.0752 19.3362H39.9233C36.3618 19.3362 33.148 19.7055 30.5337 20.3022C26.8695 21.1385 23.3162 22.6573 21.4678 23.5221C19.7785 24.3126 18.8425 24.7932 17.2587 25.7761C15.9492 26.5887 15.2498 27.1015 14.0208 28.0301C11.5961 29.8621 10.4593 30.9281 8.19278 33.1821C5.92631 35.436 2.6885 40.588 2.6885 40.588L0.0982518 45.4179C0.352259 45.7439 0.686439 46.2212 1.08792 46.7946C2.24467 48.4467 3.96009 50.8967 5.92632 52.8239C8.57497 55.4199 11.8163 57.4542 13.5988 58.2814C18.0827 60.3624 18.7866 60.5361 21.9258 61.3107C22.1868 61.3751 22.4647 61.4436 22.7629 61.5178C26.6483 62.4838 31.9411 61.7366 33.4477 61.5178C34.7237 61.3325 35.4383 61.1993 36.6855 60.8738C38.5037 60.3993 39.5011 60.0239 41.2185 59.2638C42.9241 58.5089 43.8564 58.0126 45.4276 57.0098C47.173 55.8959 49.6368 53.7899 49.6368 53.7899C49.6368 53.7899 52.5508 51.2139 54.8173 47.9939C57.0838 44.774 58.5702 40.7915 59.0264 38.978C59.369 37.6165 59.471 36.779 59.6296 35.4774C59.6439 35.3603 59.6586 35.2394 59.674 35.114L59.6938 34.953L59.6938 34.9529C59.8971 33.2998 60.0181 32.3161 59.9978 30.6061C59.9798 29.092 59.8764 28.2429 59.674 26.7421L59.6575 26.6194C59.4799 25.3013 59.3746 24.5196 59.0264 23.2001C58.7737 22.2424 58.5541 21.6503 58.2521 20.8357C58.1902 20.6689 58.1249 20.4927 58.0551 20.3022C57.9714 20.0738 57.8955 19.8628 57.8236 19.6632C57.4952 18.7512 57.2533 18.0793 56.76 17.0822C56.1089 15.7664 55.6571 15.0677 54.8173 13.8622C53.7938 12.3932 53.1167 11.6386 51.9033 10.3203C50.9374 9.27086 49.313 7.7443 49.313 7.7443C49.313 7.7443 47.3703 6.1343 45.7514 5.16832C44.1325 4.20235 40.8199 2.61992 39.9233 2.27035L39.873 2.25073C38.4151 1.68226 37.5744 1.35442 36.038 0.982365C34.7274 0.665006 33.8602 0.567931 32.6984 0.437869C32.4276 0.407562 32.1409 0.375464 31.8288 0.338371C31.6207 0.31364 31.4264 0.289964 31.2415 0.267451C30.1945 0.13992 29.4538 0.0497092 28.2672 0.0163742C26.241 -0.0405491 25.0925 0.0472145 23.0867 0.338371C21.8108 0.523586 21.0958 0.655582 19.8489 0.982365C17.7596 1.52993 16.6221 1.99659 14.6684 2.91435C12.8249 3.78035 11.8229 4.35228 10.1355 5.49032C9.08897 6.1961 8.50407 6.60257 7.54522 7.4223C6.46041 8.34972 4.95497 9.99828 4.95497 9.99828C4.95497 9.99828 1.0696 14.1842 0.098227 17.4042C-0.122788 18.1368 0.0982345 20.3022 0.0982345 20.3022C0.0982345 20.3022 0.403942 21.1422 0.745797 21.5902C1.99017 23.2208 3.99635 23.5898 5.92631 22.8782Z" fill="url(#paint0_linear_8095_13086)"/>
<defs>
<linearGradient id="paint0_linear_8095_13086" x1="30" y1="0" x2="30" y2="62" gradientUnits="userSpaceOnUse">
<stop stop-color="#E69633"/>
<stop offset="1" stop-color="#CF497E"/>
</linearGradient>
</defs>
</svg>
