<svg width="24" height="24" viewBox="0 0 24 24" fill="none" xmlns="http://www.w3.org/2000/svg">
<g id="State=Profile">
<path id="Icon" fill-rule="evenodd" clip-rule="evenodd" d="M20.769 17.6907C19.5752 17.0574 18.4238 16.7458 17.5204 16.5575C17.5222 16.5566 17.5241 16.5566 17.5259 16.5558C17.4356 16.5372 17.3545 16.522 17.2687 16.506C17.2125 16.495 17.1563 16.4832 17.1019 16.4739C16.5847 16.3759 16.1782 16.3143 15.956 16.2476C15.3725 16.0694 14.7448 15.8811 14.7448 15.1211C14.7448 14.3619 14.7337 14.2623 14.9328 14.1609C15.3117 13.965 15.5357 13.6627 15.5855 13.428C15.6777 12.9897 15.7256 11.7619 15.8454 11.6057C15.9653 11.4461 16.1801 11.582 16.2538 11.2223C16.3248 10.8625 16.3248 10.5467 16.3958 10.4125C16.4677 10.2773 16.7184 9.40588 16.5635 9.10695C16.4253 8.84011 16.1745 8.97944 16.157 8.81393C16.1266 8.54455 16.6622 6.28313 16.2999 5.32553C16.0962 4.78256 15.6657 4.27927 15.662 4.26744C15.3983 3.38838 13.5796 2.91718 13.1242 2.73647C12.6688 2.5566 11.3293 2.30918 10.4195 2.73647C9.50964 3.1646 9.26535 3.74051 8.88095 3.96513C8.49839 4.19144 8.09001 4.32909 7.7139 5.32553C7.35162 6.28313 7.88721 8.54455 7.85771 8.81393C7.84019 8.97944 7.58853 8.84011 7.4521 9.10695C7.29539 9.40588 7.54705 10.2773 7.61803 10.4125C7.68993 10.5467 7.68993 10.8625 7.76276 11.2223C7.83374 11.582 8.04853 11.4461 8.16929 11.6057C8.28913 11.7619 8.33706 12.9897 8.42925 13.428C8.47811 13.6627 8.70303 13.965 9.08191 14.1609C9.2801 14.2623 9.26996 14.3619 9.26996 15.1211C9.26996 15.8811 8.64311 16.0694 8.05775 16.2476C7.4309 16.4384 5.38442 16.5473 3.23101 17.6907C1.37996 18.6728 1.50164 21.5 1.50164 21.5H9.67926H11.5552H22.4983C22.4983 21.5 22.6209 18.6728 20.769 17.6907Z" fill="#BCBCBC"/>
</g>
</svg>
