<svg width="24" height="24" viewBox="0 0 24 24" fill="none" xmlns="http://www.w3.org/2000/svg">
<g id="State=Action">
<path id="Icon" fill-rule="evenodd" clip-rule="evenodd" d="M12 22C17.5228 22 22 17.5228 22 12C22 6.47715 17.5228 2 12 2C6.47715 2 2 6.47715 2 12C2 17.5228 6.47715 22 12 22ZM7.89359 9.1904C7.5355 8.83231 7.5355 8.25173 7.89359 7.89364C8.25168 7.53554 8.83226 7.53554 9.19036 7.89364L12 10.7033L14.8097 7.89364C15.1678 7.53554 15.7484 7.53554 16.1064 7.89364C16.4645 8.25173 16.4645 8.83231 16.1064 9.1904L13.2968 12.0001L16.1064 14.8097C16.4645 15.1678 16.4645 15.7484 16.1064 16.1065C15.7484 16.4646 15.1678 16.4646 14.8097 16.1065L12 13.2968L9.19036 16.1065C8.83226 16.4646 8.25168 16.4646 7.89359 16.1065C7.5355 15.7484 7.5355 15.1678 7.89359 14.8097L10.7033 12.0001L7.89359 9.1904Z" fill="#BCBCBC"/>
</g>
</svg>
