<svg width="24" height="24" viewBox="0 0 24 24" fill="none" xmlns="http://www.w3.org/2000/svg">
<g id="State=Search">
<path id="Icon" fill-rule="evenodd" clip-rule="evenodd" d="M21.6835 20.1848L16.7866 15.3669C18.0778 13.8964 18.8599 11.9736 18.8599 9.86957C18.8599 5.24718 15.0856 1.5 10.4299 1.5C5.77421 1.5 2 5.24718 2 9.86957C2 14.492 5.77421 18.2391 10.4299 18.2391C12.1895 18.2391 13.8231 17.7039 15.1747 16.7885L20.155 21.6886C20.5771 22.1038 21.2614 22.1038 21.6835 21.6886C22.1055 21.2733 22.1055 20.6 21.6835 20.1848ZM16.6984 9.86955C16.6984 13.3067 13.8919 16.0931 10.43 16.0931C6.96802 16.0931 4.16156 13.3067 4.16156 9.86955C4.16156 6.43239 6.96802 3.64602 10.43 3.64602C13.8919 3.64602 16.6984 6.43239 16.6984 9.86955Z" fill="#BCBCBC"/>
</g>
</svg>
