<svg width="22" height="22" viewBox="0 0 22 22" fill="none" xmlns="http://www.w3.org/2000/svg">
<g id="Icons">
<path id="Vector" d="M18.6027 16.2153C18.1888 15.2891 17.5881 14.4478 16.8342 13.7383C16.0826 13.0267 15.1922 12.4593 14.2122 12.0675C14.2034 12.0634 14.1947 12.0613 14.1859 12.0572C15.5528 11.1244 16.4415 9.60496 16.4415 7.8907C16.4415 5.05088 14.006 2.75 11 2.75C7.99404 2.75 5.55855 5.05088 5.55855 7.8907C5.55855 9.60496 6.44717 11.1244 7.81412 12.0592C7.80534 12.0634 7.79656 12.0655 7.78779 12.0696C6.80482 12.4614 5.92277 13.0231 5.1658 13.7403C4.41257 14.4504 3.81203 15.2916 3.39732 16.2174C2.98992 17.1238 2.7702 18.0955 2.75005 19.08C2.74947 19.1021 2.75358 19.1242 2.76214 19.1448C2.77069 19.1654 2.78353 19.1841 2.79989 19.2C2.81625 19.2158 2.8358 19.2284 2.85738 19.237C2.87897 19.2456 2.90216 19.25 2.92559 19.25H4.24207C4.33861 19.25 4.4154 19.1775 4.4176 19.0883C4.46148 17.4881 5.14166 15.9894 6.34405 14.8535C7.58812 13.6781 9.2403 13.0314 11 13.0314C12.7597 13.0314 14.4119 13.6781 15.656 14.8535C16.8583 15.9894 17.5385 17.4881 17.5824 19.0883C17.5846 19.1795 17.6614 19.25 17.7579 19.25H19.0744C19.0978 19.25 19.121 19.2456 19.1426 19.237C19.1642 19.2284 19.1838 19.2158 19.2001 19.2C19.2165 19.1841 19.2293 19.1654 19.2379 19.1448C19.2464 19.1242 19.2505 19.1021 19.2499 19.08C19.228 18.0892 19.0108 17.1253 18.6027 16.2153ZM11 11.456C9.99289 11.456 9.04503 11.085 8.33193 10.4113C7.61884 9.73763 7.22609 8.84215 7.22609 7.8907C7.22609 6.93926 7.61884 6.04378 8.33193 5.3701C9.04503 4.69642 9.99289 4.32538 11 4.32538C12.0071 4.32538 12.955 4.69642 13.6681 5.3701C14.3812 6.04378 14.7739 6.93926 14.7739 7.8907C14.7739 8.84215 14.3812 9.73763 13.6681 10.4113C12.955 11.085 12.0071 11.456 11 11.456Z" fill="#BCBCBC"/>
</g>
</svg>
